# xmcd
#
# Track frame offsets:
#	150
#	14732
#	29512
#	42880
#	53750
#	66870
#	81467
#	94717
#	106637
#	123650
#	139077
#	155305
#	168682
#	182807
#	196140
#
# Disc length: 2819 seconds
#
# Revision: 10
# Processed by: cddbd v1.5.2PL0 Copyright (c) Steve Scherf et al.
# Submitted via: EasyCDDAExtractor 15.3.0.1
#
DISCID=cd0b010f
DTITLE=Ana Gabriel - Joyas De Dos Siglos
DYEAR=1995
DGENRE=Latin
TTITLE0=Clemencia
TTITLE1=Un Viejo Amor
TTITLE2=Aburrido Me Voy
TTITLE3=Ya Se Va La Embarcacion
TTITLE4=La Despedida
TTITLE5=Reconciliacion
TTITLE6=Hay Unos Ojos
TTITLE7=Flor Triste
TTITLE8=Boda Negra (El Enterrador)
TTITLE9=Marchita El Alma
TTITLE10=A La Orilla De Un Palmar
TTITLE11=Pobre Bohemio
TTITLE12=Adios Mi Chaparrita
TTITLE13=La Barca De Oro
TTITLE14=Valentin De La Sierra
EXTD=YEAR: 1995 ID3G:  81
EXTT0=
EXTT1=
EXTT2=
EXTT3=
EXTT4=
EXTT5=
EXTT6=
EXTT7=
EXTT8=
EXTT9=
EXTT10=
EXTT11=
EXTT12=
EXTT13=
EXTT14=
PLAYORDER=
